<?xml version="1.0" encoding="iso-8859-1"?>
<!-- Generator: Adobe Illustrator 19.0.0, SVG Export Plug-In . SVG Version: 6.00 Build 0)  -->
<svg version="1.1" id="Layer_1" xmlns="http://www.w3.org/2000/svg" xmlns:xlink="http://www.w3.org/1999/xlink" x="0px" y="0px"
	 viewBox="0 0 512 512" style="enable-background:new 0 0 512 512;" xml:space="preserve">
<polygon style="fill:#FBDA35;" points="256,9.355 299.675,102.221 401.492,115.061 326.668,185.296 345.919,286.097 256,236.639 
	166.081,286.097 185.332,185.296 110.508,115.061 212.325,102.221 "/>
<polygon style="fill:#F7BA35;" points="256,9.355 299.675,102.221 401.492,115.061 326.668,185.296 345.919,286.097 256,236.639 "/>
<polygon style="fill:#F75853;" points="73.858,297.472 123.728,349.905 194.714,335.863 160.258,399.494 195.549,462.667 
	124.384,449.56 75.209,502.645 65.683,430.913 0,400.549 65.277,369.323 "/>
<polygon style="fill:#B5221F;" points="73.858,297.472 123.728,349.905 194.714,335.863 160.258,399.494 195.549,462.667 
	124.384,449.56 "/>
<polygon style="fill:#64DDE0;" points="438.142,297.472 388.272,349.905 317.286,335.863 351.742,399.494 316.451,462.667 
	387.616,449.56 436.791,502.645 446.317,430.913 512,400.549 446.723,369.323 "/>
<polygon style="fill:#00C2C7;" points="438.142,297.472 387.616,449.56 436.791,502.645 446.317,430.913 512,400.549 
	446.723,369.323 "/>
<g>
</g>
<g>
</g>
<g>
</g>
<g>
</g>
<g>
</g>
<g>
</g>
<g>
</g>
<g>
</g>
<g>
</g>
<g>
</g>
<g>
</g>
<g>
</g>
<g>
</g>
<g>
</g>
<g>
</g>
</svg>
